<svg width="169" height="25" viewBox="0 0 169 25" fill="none" xmlns="http://www.w3.org/2000/svg">
<path d="M0 24.5021H8.11149L9.05549 11.2376L13.0063 24.0754H19.1249L23.2506 11.0242L24.1247 24.5021H32.7606L31.2922 2.09815H19.6494L16.3628 12.1266L13.356 2.09815H1.57335L0 24.5021Z" fill="url(#paint0_linear_3206_33472)"/>
<path d="M35.078 4.80085H43.8538V0H35.078V4.80085ZM35.078 24.5021H43.8538V6.65007H35.078V24.5021Z" fill="url(#paint1_linear_3206_33472)"/>
<path d="M46.7211 24.5021H55.4969V15.3627C56.266 13.9047 57.9792 12.9801 60.1819 12.9801C61.1609 12.9801 62.1049 13.1579 62.5594 13.478V5.76102C62.1399 5.51209 61.4406 5.36984 60.6714 5.36984C58.4338 5.36984 56.6506 6.29445 55.4969 9.10384V5.76102H46.7211V24.5021Z" fill="url(#paint2_linear_3206_33472)"/>
<path d="M64.5783 24.5021H73.3541V15.3627C74.1233 13.9047 75.8365 12.9801 78.0392 12.9801C79.0181 12.9801 79.9622 13.1579 80.4167 13.478V5.76102C79.9971 5.51209 79.2978 5.36984 78.5286 5.36984C76.291 5.36984 74.5079 6.29445 73.3541 9.10384V5.76102H64.5783V24.5021Z" fill="url(#paint3_linear_3206_33472)"/>
<path d="M93.6312 25C101.393 25 105.903 21.2304 105.903 15.1494C105.903 9.17496 101.568 5.26316 93.6312 5.26316C85.9392 5.26316 81.394 8.99716 81.394 15.1494C81.394 21.0526 85.6945 25 93.6312 25ZM93.6661 18.2077C91.3935 18.2077 89.96 17.0697 89.96 15.1849C89.96 13.2646 91.3585 12.0555 93.6661 12.0555C95.9387 12.0555 97.3373 13.229 97.3373 15.1849C97.3373 17.0341 95.9387 18.2077 93.6661 18.2077Z" fill="url(#paint4_linear_3206_33472)"/>
<path d="M108.043 24.5021H116.819V15.3627C117.588 13.9047 119.302 12.9801 121.504 12.9801C122.483 12.9801 123.427 13.1579 123.882 13.478V5.76102C123.462 5.51209 122.763 5.36984 121.994 5.36984C119.756 5.36984 117.973 6.29445 116.819 9.10384V5.76102H108.043V24.5021Z" fill="url(#paint5_linear_3206_33472)"/>
<path d="M129.075 24.5021H138.061L139.074 21.9417H148.41L149.389 24.5021H158.479L149.389 2.09815H138.165L129.075 24.5021ZM141.137 16.1807L143.76 9.17496L146.347 16.1807H141.137Z" fill="url(#paint6_linear_3206_33472)"/>
<path d="M160.084 24.5021H169V2.09815H160.084V24.5021Z" fill="url(#paint7_linear_3206_33472)"/>
<defs>
<linearGradient id="paint0_linear_3206_33472" x1="13.494" y1="-9.2816" x2="164.618" y2="56.4672" gradientUnits="userSpaceOnUse">
<stop stop-color="#38E5E3"/>
<stop offset="0.421875" stop-color="#DED48C"/>
<stop offset="0.75" stop-color="#C645FF"/>
<stop offset="1" stop-color="#715AFF"/>
</linearGradient>
<linearGradient id="paint1_linear_3206_33472" x1="13.494" y1="-9.2816" x2="164.618" y2="56.4672" gradientUnits="userSpaceOnUse">
<stop stop-color="#38E5E3"/>
<stop offset="0.421875" stop-color="#DED48C"/>
<stop offset="0.75" stop-color="#C645FF"/>
<stop offset="1" stop-color="#715AFF"/>
</linearGradient>
<linearGradient id="paint2_linear_3206_33472" x1="13.494" y1="-9.2816" x2="164.618" y2="56.4672" gradientUnits="userSpaceOnUse">
<stop stop-color="#38E5E3"/>
<stop offset="0.421875" stop-color="#DED48C"/>
<stop offset="0.75" stop-color="#C645FF"/>
<stop offset="1" stop-color="#715AFF"/>
</linearGradient>
<linearGradient id="paint3_linear_3206_33472" x1="13.494" y1="-9.2816" x2="164.618" y2="56.4672" gradientUnits="userSpaceOnUse">
<stop stop-color="#38E5E3"/>
<stop offset="0.421875" stop-color="#DED48C"/>
<stop offset="0.75" stop-color="#C645FF"/>
<stop offset="1" stop-color="#715AFF"/>
</linearGradient>
<linearGradient id="paint4_linear_3206_33472" x1="13.494" y1="-9.2816" x2="164.618" y2="56.4672" gradientUnits="userSpaceOnUse">
<stop stop-color="#38E5E3"/>
<stop offset="0.421875" stop-color="#DED48C"/>
<stop offset="0.75" stop-color="#C645FF"/>
<stop offset="1" stop-color="#715AFF"/>
</linearGradient>
<linearGradient id="paint5_linear_3206_33472" x1="13.494" y1="-9.2816" x2="164.618" y2="56.4672" gradientUnits="userSpaceOnUse">
<stop stop-color="#38E5E3"/>
<stop offset="0.421875" stop-color="#DED48C"/>
<stop offset="0.75" stop-color="#C645FF"/>
<stop offset="1" stop-color="#715AFF"/>
</linearGradient>
<linearGradient id="paint6_linear_3206_33472" x1="13.494" y1="-9.2816" x2="164.618" y2="56.4672" gradientUnits="userSpaceOnUse">
<stop stop-color="#38E5E3"/>
<stop offset="0.421875" stop-color="#DED48C"/>
<stop offset="0.75" stop-color="#C645FF"/>
<stop offset="1" stop-color="#715AFF"/>
</linearGradient>
<linearGradient id="paint7_linear_3206_33472" x1="13.494" y1="-9.2816" x2="164.618" y2="56.4672" gradientUnits="userSpaceOnUse">
<stop stop-color="#38E5E3"/>
<stop offset="0.421875" stop-color="#DED48C"/>
<stop offset="0.75" stop-color="#C645FF"/>
<stop offset="1" stop-color="#715AFF"/>
</linearGradient>
</defs>
</svg>
